<svg width="1056" height="360" viewBox="0 0 264 90" xmlns="http://www.w3.org/2000/svg">
    <style>
        .body {
            fill: url(#body);
            animation: whirl 7.1s linear infinite;
        }

        .body-outline {
            fill: transparent;
            stroke: #363a3b;
        }

        .body-fill {
            fill: #1e1f23;
        }

        .whirl {
            animation: whirl2 11.1s ease-in-out infinite alternate;
        }

        .wheel {
            fill: #363a3b;
            rx: 0.5;
        }

        .wheel-mark {
            fill: #272c2f;
            rx: 1;
        }

        .small-button {
            fill: #363a3b;
            rx: 0.5;
        }

        .display {
            fill: #363a3b;
        }

        .slider {
            fill: #363a3b;
        }

        .slider-knob {
            fill: #d8d9d7;
        }

        .button {
            fill: #363a3b;
            rx: 0.5;
        }

        .knob {
            fill: #363a3b;
        }

        .knob-mark {
            fill: #d8d9d7;
        }

        .large-button {
            fill: #363a3b;
            rx: 0.5;
        }

        .small-circle {
            fill: #363a3b;
        }

        .white {
            fill: #d8d9d7;
        }

        .black {
            fill: #363a3b;
        }

        @keyframes whirl {
            0% {
                transform: rotate(0deg);
                transform-origin: center;
            }

            100% {
                transform: rotate(360deg);
                transform-origin: center;
            }
        }

        @keyframes whirl2 {
            0% {
                transform: rotate(0deg);
                transform-origin: center top;
            }

            100% {
                transform: rotate(450deg);
                transform-origin: center top;
            }
        }
    </style>

    <defs>
        <linearGradient id="body">
            <stop offset="0%" stop-color="#363a3b" stop-opacity="0.4" />
            <stop offset="100%" stop-color="#1e1f23" stop-opacity="0.8" />
        </linearGradient>
        <linearGradient id="maskGradient">
            <stop offset="50%" stop-color="black" />
            <stop offset="50%" stop-color="white" />
        </linearGradient>
        <linearGradient id="maskGradient2">
            <stop offset="49.5%" stop-color="white" stop-opacity="0" />
            <stop offset="49.99%" stop-color="white" stop-opacity="1" />
            <stop offset="50%" stop-color="white" stop-opacity="1" />
            <stop offset="50.01%" stop-color="white" stop-opacity="1" />
            <stop offset="50.5%" stop-color="white" stop-opacity="0" />
        </linearGradient>

        <g id="wheel">
            <rect class="wheel" width="5" height="20" />
            <rect class="wheel-mark" x="0.5" y="6" width="4" height="8" />
        </g>

        <pattern id="small-buttons" width="0.505" height="0.505">
            <rect class="small-button" width="5" height="2" />
        </pattern>

        <g id="button">
            <rect class="button" width="8" height="2" />
        </g>
        <pattern id="buttons5" width="0.201" height="1">
            <use href="#button" />
        </pattern>
        <pattern id="buttons9" width="0.112" height="1">
            <use href="#button" />
        </pattern>

        <pattern id="sliders" width="0.112" height="1">
            <rect class="slider" x="2" width="1" height="14" rx="0.5" />
            <rect class="slider-knob" y="6" width="5" height="2" rx="1" />
        </pattern>

        <g id="knob" transform="scale(3)">
            <circle class="knob" cx="1" cy="1" r="1" />
            <rect class="knob-mark" x="0.9" width="0.2" height="1" rx="0.1" />
        </g>
        <pattern id="knobs" width="0.251" height="1">
            <use href="#knob" />
        </pattern>

        <pattern id="large-buttons" width="0.201" height="1">
            <rect class="large-button" x="0.1" width="5" height="4" />
        </pattern>

        <rect id="white-key" class="white" x="0.025" width="0.95" height="1" />
        <rect id="black-key" class="black" x="-0.05" width="1.1" height="1" />
        <pattern id="white-keys" width="1" height="1" patternUnits="userSpaceOnUse">
            <use href="#white-key" />
        </pattern>
        <pattern id="black-keys" width="12" height="1" patternUnits="userSpaceOnUse">
            <use href="#black-key" x="1" />
            <use href="#black-key" x="3" />
            <use href="#black-key" x="6" />
            <use href="#black-key" x="8" />
            <use href="#black-key" x="10" />
        </pattern>
        <pattern id="octave-keys" width="12" height="3" patternUnits="userSpaceOnUse">
            <rect fill="url(#white-keys)" width="7" height="3" transform="scale(1.714285, 1)" />
            <rect fill="url(#black-keys)" width="12" height="2" />
        </pattern>

        <polygon id="hexagon" points="1,-0.5 0,-1 -1,-0.5 -1,0.5 0,1 1,0.5" transform="scale(0.95)" />
        <g id="note-hexagons">
            <use href="#hexagon" x="0" y="0" />
            <use href="#hexagon" x="0" y="3" />
        </g>
        <pattern id="octave-hexagons" x="-1" width="12" height="7" patternUnits="userSpaceOnUse">
            <use href="#note-hexagons" class="white" x="0" y="1" />
            <use href="#note-hexagons" class="white" x="1" y="2.5" />
            <use href="#note-hexagons" class="black" x="2" y="1" />
            <use href="#note-hexagons" class="white" x="3" y="2.5" />
            <use href="#note-hexagons" class="black" x="4" y="1" />
            <use href="#note-hexagons" class="white" x="5" y="2.5" />
            <use href="#note-hexagons" class="white" x="6" y="1" />
            <use href="#note-hexagons" class="black" x="7" y="2.5" />
            <use href="#note-hexagons" class="white" x="8" y="1" />
            <use href="#note-hexagons" class="black" x="9" y="2.5" />
            <use href="#note-hexagons" class="white" x="10" y="1" />
            <use href="#note-hexagons" class="black" x="11" y="2.5" />
            <use href="#note-hexagons" class="white" x="12" y="1" />
        </pattern>
    </defs>

    <mask id="bodyMask">
        <path fill="white"
            d="m 110,144 l -89,0 c -5,0 -8,5 -8,9 l 2,69 c 0,2 2,4 5,5 H 264 c 3,0 5,-3 5,-5 l 2,-69 c 0,-4 -3,-9 -8,-9 l -89,0 z"
            transform="translate(-10.304579,-140.25294)" />
        <polyline fill="black" points="14,87 14,38 250,38 250, 87" />
    </mask>
    <g mask="url(#bodyMask)">
        <circle class="body" cx="50%" cy="50%" r="100%" />
    </g>

    <use href="#wheel" x="13" y="7" />
    <use href="#wheel" x="26" y="7" />

    <rect fill="url(#small-buttons)" x="38" y="9" width="13" height="12" />
    <rect class="display" x="54" y="8" width="19" height="13" rx="2" />

    <rect fill="url(#sliders)" x="100" y="10" width="85" height="14" />

    <rect fill="url(#buttons5)" x="38" y="27" width="54" height="2" />
    <rect fill="url(#buttons9)" x="98" y="27" width="86" height="2" />

    <rect fill="url(#knobs)" x="197" y="8" width="41" height="6" />
    <rect fill="url(#knobs)" x="202" y="16" width="41" height="6" />

    <rect fill="url(#large-buttons)" x="200" y="25" width="31" height="4" />
    <circle class="small-circle" cx="234" cy="27" r="2" />

    <mask id="keysMask">
        <circle class="whirl" fill="url(#maskGradient)" filter="invert()" cx="50%" cy="50%" r="100%" />
    </mask>
    <mask id="hexagonsMask">
        <circle class="whirl" fill="url(#maskGradient)" cx="50%" cy="50%" r="100%" />
    </mask>

    <g id="keys" mask="url(#keysMask)">
        <g transform="translate(15, 39) scale(4.7, 16)">
            <rect fill="url(#octave-keys)" width="48" height="3" />
            <rect fill="url(#white-keys)" x="28" width="1" height="3" transform="scale(1.714285, 1)" />
        </g>
    </g>

    <g id="hexagons" mask="url(#hexagonsMask)">
        <g transform="translate(15, 40) scale(4.875,  7)">
            <use href="#note-hexagons" class="black" x="1" y="1" />
            <rect id="buttons" fill="url(#octave-hexagons)" x="1" width="46" height="7" />
            <use href="#note-hexagons" class="white" x="47" y="1" />
        </g>
    </g>

    <mask id="beamMask">
        <polyline fill="white" points="14,87 14,38 250,38 250, 87" />
    </mask>
    <g mask="url(#beamMask)">
        <circle class="whirl" fill="url(#maskGradient2)" cx="50%" cy="50%" r="100%" />
    </g>

    <path class="body-outline"
        d="m 110,144 l -89,0 c -5,0 -8,5 -8,9 l 2,69 c 0,2 2,4 5,5 H 264 c 3,0 5,-3 5,-5 l 2,-69 c 0,-4 -3,-9 -8,-9 l -89,0 z"
        transform="translate(-10.304579,-140.25294)" />
    <polyline class="body-outline" points="14,87 14,38 250,38 250, 87" />
</svg>